<svg id="visual" viewBox="0 0 900 100" width="900" height="100" xmlns="http://www.w3.org/2000/svg" xmlns:xlink="http://www.w3.org/1999/xlink" version="1.1"><rect x="0" y="0" width="900" height="100" fill="#dbf8ff"></rect><path d="M0 48L18.8 46.5C37.7 45 75.3 42 112.8 43.2C150.3 44.3 187.7 49.7 225.2 55C262.7 60.3 300.3 65.7 337.8 69.7C375.3 73.7 412.7 76.3 450.2 71.8C487.7 67.3 525.3 55.7 562.8 55.8C600.3 56 637.7 68 675.2 67.5C712.7 67 750.3 54 787.8 52.3C825.3 50.7 862.7 60.3 881.3 65.2L900 70L900 0L881.3 0C862.7 0 825.3 0 787.8 0C750.3 0 712.7 0 675.2 0C637.7 0 600.3 0 562.8 0C525.3 0 487.7 0 450.2 0C412.7 0 375.3 0 337.8 0C300.3 0 262.7 0 225.2 0C187.7 0 150.3 0 112.8 0C75.3 0 37.7 0 18.8 0L0 0Z" fill="#70e2ff"></path><path d="M0 54L18.8 55.5C37.7 57 75.3 60 112.8 57.3C150.3 54.7 187.7 46.3 225.2 41.3C262.7 36.3 300.3 34.7 337.8 35.7C375.3 36.7 412.7 40.3 450.2 42.3C487.7 44.3 525.3 44.7 562.8 47.8C600.3 51 637.7 57 675.2 55C712.7 53 750.3 43 787.8 40.5C825.3 38 862.7 43 881.3 45.5L900 48L900 0L881.3 0C862.7 0 825.3 0 787.8 0C750.3 0 712.7 0 675.2 0C637.7 0 600.3 0 562.8 0C525.3 0 487.7 0 450.2 0C412.7 0 375.3 0 337.8 0C300.3 0 262.7 0 225.2 0C187.7 0 150.3 0 112.8 0C75.3 0 37.7 0 18.8 0L0 0Z" fill="#61c4de"></path><path d="M0 51L18.8 50.3C37.7 49.7 75.3 48.3 112.8 47.8C150.3 47.3 187.7 47.7 225.2 47.8C262.7 48 300.3 48 337.8 46.2C375.3 44.3 412.7 40.7 450.2 37.2C487.7 33.7 525.3 30.3 562.8 31.7C600.3 33 637.7 39 675.2 39.8C712.7 40.7 750.3 36.3 787.8 35C825.3 33.7 862.7 35.3 881.3 36.2L900 37L900 0L881.3 0C862.7 0 825.3 0 787.8 0C750.3 0 712.7 0 675.2 0C637.7 0 600.3 0 562.8 0C525.3 0 487.7 0 450.2 0C412.7 0 375.3 0 337.8 0C300.3 0 262.7 0 225.2 0C187.7 0 150.3 0 112.8 0C75.3 0 37.7 0 18.8 0L0 0Z" fill="#53a7bd"></path><path d="M0 41L18.8 40.2C37.7 39.3 75.3 37.7 112.8 39.7C150.3 41.7 187.7 47.3 225.2 45.8C262.7 44.3 300.3 35.7 337.8 35C375.3 34.3 412.7 41.7 450.2 43.2C487.7 44.7 525.3 40.3 562.8 41.2C600.3 42 637.7 48 675.2 49C712.7 50 750.3 46 787.8 43C825.3 40 862.7 38 881.3 37L900 36L900 0L881.3 0C862.7 0 825.3 0 787.8 0C750.3 0 712.7 0 675.2 0C637.7 0 600.3 0 562.8 0C525.3 0 487.7 0 450.2 0C412.7 0 375.3 0 337.8 0C300.3 0 262.7 0 225.2 0C187.7 0 150.3 0 112.8 0C75.3 0 37.7 0 18.8 0L0 0Z" fill="#458b9d"></path><path d="M0 26L18.8 28.3C37.7 30.7 75.3 35.3 112.8 35.3C150.3 35.3 187.7 30.7 225.2 32C262.7 33.3 300.3 40.7 337.8 43.8C375.3 47 412.7 46 450.2 44.2C487.7 42.3 525.3 39.7 562.8 40.2C600.3 40.7 637.7 44.3 675.2 41.8C712.7 39.3 750.3 30.7 787.8 28C825.3 25.3 862.7 28.7 881.3 30.3L900 32L900 0L881.3 0C862.7 0 825.3 0 787.8 0C750.3 0 712.7 0 675.2 0C637.7 0 600.3 0 562.8 0C525.3 0 487.7 0 450.2 0C412.7 0 375.3 0 337.8 0C300.3 0 262.7 0 225.2 0C187.7 0 150.3 0 112.8 0C75.3 0 37.7 0 18.8 0L0 0Z" fill="#38707f"></path><path d="M0 35L18.8 35.5C37.7 36 75.3 37 112.8 33.3C150.3 29.7 187.7 21.3 225.2 18.8C262.7 16.3 300.3 19.7 337.8 23.5C375.3 27.3 412.7 31.7 450.2 33.8C487.7 36 525.3 36 562.8 34.8C600.3 33.7 637.7 31.3 675.2 29.5C712.7 27.7 750.3 26.3 787.8 26.8C825.3 27.3 862.7 29.7 881.3 30.8L900 32L900 0L881.3 0C862.7 0 825.3 0 787.8 0C750.3 0 712.7 0 675.2 0C637.7 0 600.3 0 562.8 0C525.3 0 487.7 0 450.2 0C412.7 0 375.3 0 337.8 0C300.3 0 262.7 0 225.2 0C187.7 0 150.3 0 112.8 0C75.3 0 37.7 0 18.8 0L0 0Z" fill="#2b5662"></path><path d="M0 20L18.8 18.5C37.7 17 75.3 14 112.8 13.7C150.3 13.3 187.7 15.7 225.2 17.8C262.7 20 300.3 22 337.8 23.3C375.3 24.7 412.7 25.3 450.2 25.7C487.7 26 525.3 26 562.8 25.3C600.3 24.7 637.7 23.3 675.2 23.2C712.7 23 750.3 24 787.8 25C825.3 26 862.7 27 881.3 27.5L900 28L900 0L881.3 0C862.7 0 825.3 0 787.8 0C750.3 0 712.7 0 675.2 0C637.7 0 600.3 0 562.8 0C525.3 0 487.7 0 450.2 0C412.7 0 375.3 0 337.8 0C300.3 0 262.7 0 225.2 0C187.7 0 150.3 0 112.8 0C75.3 0 37.7 0 18.8 0L0 0Z" fill="#1e3d46"></path><path d="M0 8L18.8 9C37.7 10 75.3 12 112.8 12.2C150.3 12.3 187.7 10.7 225.2 11.3C262.7 12 300.3 15 337.8 16C375.3 17 412.7 16 450.2 16.2C487.7 16.3 525.3 17.7 562.8 18.7C600.3 19.7 637.7 20.3 675.2 19.7C712.7 19 750.3 17 787.8 15.5C825.3 14 862.7 13 881.3 12.5L900 12L900 0L881.3 0C862.7 0 825.3 0 787.8 0C750.3 0 712.7 0 675.2 0C637.7 0 600.3 0 562.8 0C525.3 0 487.7 0 450.2 0C412.7 0 375.3 0 337.8 0C300.3 0 262.7 0 225.2 0C187.7 0 150.3 0 112.8 0C75.3 0 37.7 0 18.8 0L0 0Z" fill="#12262c"></path><path d="M0 9L18.8 9.8C37.7 10.7 75.3 12.3 112.8 13.3C150.3 14.3 187.7 14.7 225.2 13C262.7 11.3 300.3 7.7 337.8 7.3C375.3 7 412.7 10 450.2 10.8C487.7 11.7 525.3 10.3 562.8 10.5C600.3 10.7 637.7 12.3 675.2 13.2C712.7 14 750.3 14 787.8 13.5C825.3 13 862.7 12 881.3 11.5L900 11L900 0L881.3 0C862.7 0 825.3 0 787.8 0C750.3 0 712.7 0 675.2 0C637.7 0 600.3 0 562.8 0C525.3 0 487.7 0 450.2 0C412.7 0 375.3 0 337.8 0C300.3 0 262.7 0 225.2 0C187.7 0 150.3 0 112.8 0C75.3 0 37.7 0 18.8 0L0 0Z" fill="#001014"></path></svg>