<svg id="visual" viewBox="0 0 900 170" width="900" height="170" xmlns="http://www.w3.org/2000/svg" xmlns:xlink="http://www.w3.org/1999/xlink" version="1.1"><rect x="0" y="0" width="900" height="170" fill="#dbf8ff"></rect><path d="M0 91L18.8 88.3C37.7 85.7 75.3 80.3 112.8 82.7C150.3 85 187.7 95 225.2 105C262.7 115 300.3 125 337.8 132.5C375.3 140 412.7 145 450.2 136.5C487.7 128 525.3 106 562.8 106.5C600.3 107 637.7 130 675.2 129C712.7 128 750.3 103 787.8 99.5C825.3 96 862.7 114 881.3 123L900 132L900 0L881.3 0C862.7 0 825.3 0 787.8 0C750.3 0 712.7 0 675.2 0C637.7 0 600.3 0 562.8 0C525.3 0 487.7 0 450.2 0C412.7 0 375.3 0 337.8 0C300.3 0 262.7 0 225.2 0C187.7 0 150.3 0 112.8 0C75.3 0 37.7 0 18.8 0L0 0Z" fill="#70e2ff"></path><path d="M0 103L18.8 105.8C37.7 108.7 75.3 114.3 112.8 109.3C150.3 104.3 187.7 88.7 225.2 79.3C262.7 70 300.3 67 337.8 68.7C375.3 70.3 412.7 76.7 450.2 80.5C487.7 84.3 525.3 85.7 562.8 91.8C600.3 98 637.7 109 675.2 105C712.7 101 750.3 82 787.8 77.3C825.3 72.7 862.7 82.3 881.3 87.2L900 92L900 0L881.3 0C862.7 0 825.3 0 787.8 0C750.3 0 712.7 0 675.2 0C637.7 0 600.3 0 562.8 0C525.3 0 487.7 0 450.2 0C412.7 0 375.3 0 337.8 0C300.3 0 262.7 0 225.2 0C187.7 0 150.3 0 112.8 0C75.3 0 37.7 0 18.8 0L0 0Z" fill="#61c4de"></path><path d="M0 98L18.8 96.7C37.7 95.3 75.3 92.7 112.8 91.5C150.3 90.3 187.7 90.7 225.2 91C262.7 91.3 300.3 91.7 337.8 88.3C375.3 85 412.7 78 450.2 71.5C487.7 65 525.3 59 562.8 61.3C600.3 63.7 637.7 74.3 675.2 75.8C712.7 77.3 750.3 69.7 787.8 67.3C825.3 65 862.7 68 881.3 69.5L900 71L900 0L881.3 0C862.7 0 825.3 0 787.8 0C750.3 0 712.7 0 675.2 0C637.7 0 600.3 0 562.8 0C525.3 0 487.7 0 450.2 0C412.7 0 375.3 0 337.8 0C300.3 0 262.7 0 225.2 0C187.7 0 150.3 0 112.8 0C75.3 0 37.7 0 18.8 0L0 0Z" fill="#53a7bd"></path><path d="M0 78L18.8 76.7C37.7 75.3 75.3 72.7 112.8 76.5C150.3 80.3 187.7 90.7 225.2 87.7C262.7 84.7 300.3 68.3 337.8 67C375.3 65.7 412.7 79.3 450.2 82.2C487.7 85 525.3 77 562.8 78.8C600.3 80.7 637.7 92.3 675.2 94C712.7 95.7 750.3 87.3 787.8 81.7C825.3 76 862.7 73 881.3 71.5L900 70L900 0L881.3 0C862.7 0 825.3 0 787.8 0C750.3 0 712.7 0 675.2 0C637.7 0 600.3 0 562.8 0C525.3 0 487.7 0 450.2 0C412.7 0 375.3 0 337.8 0C300.3 0 262.7 0 225.2 0C187.7 0 150.3 0 112.8 0C75.3 0 37.7 0 18.8 0L0 0Z" fill="#458b9d"></path><path d="M0 50L18.8 54.5C37.7 59 75.3 68 112.8 68.2C150.3 68.3 187.7 59.7 225.2 62.2C262.7 64.7 300.3 78.3 337.8 84C375.3 89.7 412.7 87.3 450.2 84C487.7 80.7 525.3 76.3 562.8 77.3C600.3 78.3 637.7 84.7 675.2 79.8C712.7 75 750.3 59 787.8 54.2C825.3 49.3 862.7 55.7 881.3 58.8L900 62L900 0L881.3 0C862.7 0 825.3 0 787.8 0C750.3 0 712.7 0 675.2 0C637.7 0 600.3 0 562.8 0C525.3 0 487.7 0 450.2 0C412.7 0 375.3 0 337.8 0C300.3 0 262.7 0 225.2 0C187.7 0 150.3 0 112.8 0C75.3 0 37.7 0 18.8 0L0 0Z" fill="#38707f"></path><path d="M0 67L18.8 67.8C37.7 68.7 75.3 70.3 112.8 63.3C150.3 56.3 187.7 40.7 225.2 36C262.7 31.3 300.3 37.7 337.8 45C375.3 52.3 412.7 60.7 450.2 64.7C487.7 68.7 525.3 68.3 562.8 66.2C600.3 64 637.7 60 675.2 56.5C712.7 53 750.3 50 787.8 51C825.3 52 862.7 57 881.3 59.5L900 62L900 0L881.3 0C862.7 0 825.3 0 787.8 0C750.3 0 712.7 0 675.2 0C637.7 0 600.3 0 562.8 0C525.3 0 487.7 0 450.2 0C412.7 0 375.3 0 337.8 0C300.3 0 262.7 0 225.2 0C187.7 0 150.3 0 112.8 0C75.3 0 37.7 0 18.8 0L0 0Z" fill="#2b5662"></path><path d="M0 38L18.8 35.3C37.7 32.7 75.3 27.3 112.8 26.7C150.3 26 187.7 30 225.2 34C262.7 38 300.3 42 337.8 44.8C375.3 47.7 412.7 49.3 450.2 50C487.7 50.7 525.3 50.3 562.8 49C600.3 47.7 637.7 45.3 675.2 45.2C712.7 45 750.3 47 787.8 48.8C825.3 50.7 862.7 52.3 881.3 53.2L900 54L900 0L881.3 0C862.7 0 825.3 0 787.8 0C750.3 0 712.7 0 675.2 0C637.7 0 600.3 0 562.8 0C525.3 0 487.7 0 450.2 0C412.7 0 375.3 0 337.8 0C300.3 0 262.7 0 225.2 0C187.7 0 150.3 0 112.8 0C75.3 0 37.7 0 18.8 0L0 0Z" fill="#1e3d46"></path><path d="M0 16L18.8 17.8C37.7 19.7 75.3 23.3 112.8 23.8C150.3 24.3 187.7 21.7 225.2 22.8C262.7 24 300.3 29 337.8 30.7C375.3 32.3 412.7 30.7 450.2 31C487.7 31.3 525.3 33.7 562.8 35.7C600.3 37.7 637.7 39.3 675.2 38.3C712.7 37.3 750.3 33.7 787.8 30.7C825.3 27.7 862.7 25.3 881.3 24.2L900 23L900 0L881.3 0C862.7 0 825.3 0 787.8 0C750.3 0 712.7 0 675.2 0C637.7 0 600.3 0 562.8 0C525.3 0 487.7 0 450.2 0C412.7 0 375.3 0 337.8 0C300.3 0 262.7 0 225.2 0C187.7 0 150.3 0 112.8 0C75.3 0 37.7 0 18.8 0L0 0Z" fill="#12262c"></path><path d="M0 19L18.8 20.2C37.7 21.3 75.3 23.7 112.8 25.3C150.3 27 187.7 28 225.2 25.2C262.7 22.3 300.3 15.7 337.8 15.2C375.3 14.7 412.7 20.3 450.2 22C487.7 23.7 525.3 21.3 562.8 21.7C600.3 22 637.7 25 675.2 26.3C712.7 27.7 750.3 27.3 787.8 26.3C825.3 25.3 862.7 23.7 881.3 22.8L900 22L900 0L881.3 0C862.7 0 825.3 0 787.8 0C750.3 0 712.7 0 675.2 0C637.7 0 600.3 0 562.8 0C525.3 0 487.7 0 450.2 0C412.7 0 375.3 0 337.8 0C300.3 0 262.7 0 225.2 0C187.7 0 150.3 0 112.8 0C75.3 0 37.7 0 18.8 0L0 0Z" fill="#001014"></path></svg>