<svg id="visual" viewBox="0 0 900 170" width="900" height="170" xmlns="http://www.w3.org/2000/svg" xmlns:xlink="http://www.w3.org/1999/xlink" version="1.1"><path d="M0 137L6.3 137.7C12.7 138.3 25.3 139.7 37.8 141.7C50.3 143.7 62.7 146.3 75.2 148.2C87.7 150 100.3 151 112.8 151.3C125.3 151.7 137.7 151.3 150.2 149.7C162.7 148 175.3 145 187.8 143.8C200.3 142.7 212.7 143.3 225.2 142.7C237.7 142 250.3 140 262.8 138.3C275.3 136.7 287.7 135.3 300.2 135.5C312.7 135.7 325.3 137.3 337.8 139.3C350.3 141.3 362.7 143.7 375.2 144.5C387.7 145.3 400.3 144.7 412.8 143.5C425.3 142.3 437.7 140.7 450 140C462.3 139.3 474.7 139.7 487.2 139.3C499.7 139 512.3 138 525 137.7C537.7 137.3 550.3 137.7 562.8 139.2C575.3 140.7 587.7 143.3 600.2 143.5C612.7 143.7 625.3 141.3 637.8 141C650.3 140.7 662.7 142.3 675.2 144.2C687.7 146 700.3 148 712.8 149C725.3 150 737.7 150 750.2 149.5C762.7 149 775.3 148 787.8 146.8C800.3 145.7 812.7 144.3 825.2 143.2C837.7 142 850.3 141 862.8 142.2C875.3 143.3 887.7 146.7 893.8 148.3L900 150L900 171L893.8 171C887.7 171 875.3 171 862.8 171C850.3 171 837.7 171 825.2 171C812.7 171 800.3 171 787.8 171C775.3 171 762.7 171 750.2 171C737.7 171 725.3 171 712.8 171C700.3 171 687.7 171 675.2 171C662.7 171 650.3 171 637.8 171C625.3 171 612.7 171 600.2 171C587.7 171 575.3 171 562.8 171C550.3 171 537.7 171 525 171C512.3 171 499.7 171 487.2 171C474.7 171 462.3 171 450 171C437.7 171 425.3 171 412.8 171C400.3 171 387.7 171 375.2 171C362.7 171 350.3 171 337.8 171C325.3 171 312.7 171 300.2 171C287.7 171 275.3 171 262.8 171C250.3 171 237.7 171 225.2 171C212.7 171 200.3 171 187.8 171C175.3 171 162.7 171 150.2 171C137.7 171 125.3 171 112.8 171C100.3 171 87.7 171 75.2 171C62.7 171 50.3 171 37.8 171C25.3 171 12.7 171 6.3 171L0 171Z" fill="#001014" stroke-linecap="round" stroke-linejoin="miter"></path></svg>