<svg id="visual" viewBox="0 0 900 170" width="900" height="170" xmlns="http://www.w3.org/2000/svg" xmlns:xlink="http://www.w3.org/1999/xlink" version="1.1"><path d="M0 114L16.7 107C33.3 100 66.7 86 100 88C133.3 90 166.7 108 200 103C233.3 98 266.7 70 300 58.5C333.3 47 366.7 52 400 55.5C433.3 59 466.7 61 500 69.7C533.3 78.3 566.7 93.7 600 103.2C633.3 112.7 666.7 116.3 700 114.7C733.3 113 766.7 106 800 100.7C833.3 95.3 866.7 91.7 883.3 89.8L900 88L900 0L883.3 0C866.7 0 833.3 0 800 0C766.7 0 733.3 0 700 0C666.7 0 633.3 0 600 0C566.7 0 533.3 0 500 0C466.7 0 433.3 0 400 0C366.7 0 333.3 0 300 0C266.7 0 233.3 0 200 0C166.7 0 133.3 0 100 0C66.7 0 33.3 0 16.7 0L0 0Z" fill="#dbf8ff" stroke-linecap="round" stroke-linejoin="miter"></path></svg>